<?xml version="1.0" encoding="UTF-8"?>
<svg xmlns="http://www.w3.org/2000/svg" xmlns:xlink="http://www.w3.org/1999/xlink" width="400px" height="450px" viewBox="0 0 400 450" version="1.1">
<defs>
<clipPath id="clip1">
  <path d="M 285.527344 179.371094 L 320 179.371094 L 320 200.773438 L 285.527344 200.773438 Z M 285.527344 179.371094 "/>
</clipPath>
<clipPath id="clip2">
  <path d="M 80 179.371094 L 268.46875 179.371094 L 268.46875 270.628906 L 80 270.628906 Z M 80 179.371094 "/>
</clipPath>
</defs>
<g id="surface1">
<path style=" stroke:none;fill-rule:nonzero;fill:rgb(96.862745%,21.960784%,21.960784%);fill-opacity:1;" d="M 26.199219 283.90625 L 30.859375 289.71875 L 28.53125 282.164062 C 27.949219 278.675781 23.875 282.742188 26.199219 283.90625 M 31.441406 280.421875 C 33.1875 283.324219 34.933594 286.230469 34.933594 289.136719 C 34.933594 293.203125 38.429688 294.945312 41.339844 296.105469 C 37.265625 291.460938 34.933594 278.675781 31.441406 280.421875 M 255.023438 34.046875 C 264.917969 34.046875 274.238281 32.882812 284.714844 35.207031 C 310.335938 41.597656 331.875 54.378906 346.433594 72.394531 L 387.191406 137.476562 C 388.9375 153.746094 392.429688 171.757812 391.851562 191.515625 C 395.925781 191.515625 395.34375 185.707031 400 184.542969 C 395.34375 196.164062 393.011719 210.691406 391.851562 227.542969 C 388.9375 218.246094 391.851562 204.300781 392.429688 196.746094 C 388.355469 203.136719 386.027344 198.488281 386.027344 195.582031 C 386.609375 190.933594 384.28125 191.515625 382.53125 189.773438 C 376.125 183.960938 372.050781 177.566406 367.394531 167.691406 C 370.304688 160.136719 370.890625 149.097656 361.570312 143.285156 C 358.660156 141.542969 355.167969 138.640625 353.421875 133.988281 C 351.089844 127.597656 347.015625 120.042969 348.179688 110.164062 C 348.761719 107.257812 339.445312 116.558594 334.207031 112.488281 C 311.496094 96.800781 288.792969 78.785156 261.425781 63.679688 C 246.871094 63.679688 236.390625 58.445312 231.152344 52.054688 C 226.492188 46.246094 229.988281 38.691406 236.972656 38.109375 C 241.046875 38.109375 245.707031 36.949219 249.199219 39.273438 C 249.78125 36.949219 252.113281 34.046875 255.023438 34.046875 M 197.382812 20.679688 L 198.546875 21.257812 C 204.367188 22.421875 207.277344 30.558594 213.683594 27.648438 C 213.683594 31.722656 214.265625 35.785156 213.097656 38.691406 C 211.351562 43.339844 206.113281 43.339844 202.039062 43.339844 C 163.027344 41.015625 140.320312 57.289062 116.449219 71.234375 C 110.042969 75.300781 103.058594 78.203125 97.816406 83.4375 C 72.78125 106.679688 45.414062 128.175781 39.007812 171.179688 L 33.769531 218.828125 C 33.1875 224.054688 27.363281 229.285156 28.53125 235.675781 L 32.605469 264.148438 C 28.53125 260.082031 26.199219 265.3125 27.363281 267.636719 C 27.949219 269.382812 30.273438 275.1875 33.769531 269.960938 C 38.429688 278.675781 43.085938 295.527344 49.488281 303.082031 C 69.285156 326.328125 94.902344 347.246094 115.867188 368.164062 C 121.109375 367 125.183594 367 126.347656 363.511719 C 128.09375 367 124.597656 370.488281 121.6875 371.066406 C 131.003906 376.878906 141.484375 382.109375 155.457031 383.269531 C 173.507812 384.433594 190.394531 387.335938 206.113281 391.40625 C 214.265625 389.082031 222.417969 387.921875 231.152344 387.335938 C 234.0625 387.335938 235.808594 382.691406 239.300781 381.527344 L 239.882812 375.71875 C 243.378906 380.945312 242.796875 373.976562 240.464844 370.488281 C 244.542969 373.976562 245.707031 376.878906 247.453125 379.203125 C 247.453125 377.460938 252.113281 371.066406 252.113281 378.621094 L 253.277344 371.066406 C 255.023438 369.90625 255.601562 377.460938 257.351562 372.230469 C 259.097656 367 262.589844 371.066406 266.085938 369.324219 C 264.921875 371.648438 265.5 376.296875 269.578125 373.390625 L 274.238281 369.324219 C 277.148438 376.296875 281.804688 373.390625 284.132812 372.230469 C 309.75 355.960938 335.371094 336.785156 359.824219 317.609375 L 359.242188 325.164062 L 362.15625 315.863281 C 365.066406 318.773438 367.394531 316.449219 368.558594 314.703125 C 372.050781 308.894531 376.710938 303.082031 384.28125 297.855469 C 374.964844 322.839844 363.902344 342.59375 349.925781 358.863281 L 344.105469 365.839844 C 344.105469 369.90625 342.941406 375.136719 338.28125 375.71875 C 335.957031 376.296875 331.296875 374.554688 327.800781 378.042969 C 326.054688 380.367188 331.878906 385.015625 327.21875 381.527344 C 323.144531 378.621094 319.070312 381.527344 314.410156 382.691406 C 310.917969 383.851562 316.738281 387.335938 317.90625 389.660156 C 319.070312 391.984375 320.230469 394.308594 319.652344 397.214844 L 313.246094 390.246094 C 305.675781 394.3125 301.015625 401.863281 294.613281 407.675781 C 291.703125 410 292.867188 414.070312 292.867188 417.554688 C 288.792969 417.554688 284.132812 416.390625 281.804688 418.71875 C 280.058594 421.042969 280.640625 424.53125 280.640625 428.011719 C 274.816406 427.433594 274.238281 418.71875 268.996094 420.457031 C 263.757812 421.621094 257.933594 422.203125 253.277344 425.109375 C 256.765625 432.082031 247.453125 428.011719 248.617188 429.175781 C 239.882812 423.945312 232.316406 419.878906 222.996094 423.367188 C 203.203125 416.972656 178.746094 419.878906 160.699219 422.203125 C 160.699219 419.296875 161.28125 416.394531 160.117188 415.8125 C 158.953125 418.71875 155.457031 417.554688 156.042969 417.554688 C 144.976562 410 133.917969 405.351562 122.273438 398.960938 C 111.792969 400.125 101.894531 394.890625 98.984375 391.984375 C 90.828125 384.433594 81.515625 388.5 73.945312 386.757812 C 57.644531 382.691406 51.820312 365.839844 50.074219 354.21875 C 48.910156 348.40625 44.25 346.082031 42.503906 346.660156 C 34.933594 322.257812 23.289062 300.179688 13.972656 277.515625 C 11.644531 271.703125 12.230469 265.894531 12.230469 259.503906 C 15.140625 260.664062 18.050781 260.082031 17.46875 256.015625 C 14.554688 236.839844 7.570312 222.3125 0 208.367188 C 4.074219 188.609375 4.65625 165.367188 13.972656 147.933594 C 22.125 132.246094 37.265625 124.109375 47.746094 110.746094 C 51.238281 106.097656 51.238281 99.703125 54.730469 95.640625 C 66.375 84.015625 78.023438 71.8125 90.828125 61.355469 C 96.652344 56.707031 103.640625 61.355469 112.375 59.609375 C 115.285156 49.152344 126.929688 39.851562 137.992188 42.761719 C 142.648438 43.925781 151.964844 31.722656 154.878906 30.558594 C 159.535156 28.8125 157.203125 35.207031 157.203125 39.273438 C 168.269531 30.558594 183.40625 25.910156 197.382812 20.679688 "/>
<g clip-path="url(#clip1)" clip-rule="nonzero">
<path style=" stroke:none;fill-rule:nonzero;fill:rgb(85.490196%,28.627451%,28.627451%);fill-opacity:1;" d="M 285.527344 179.371094 L 290.257812 179.371094 L 290.257812 191.472656 L 285.527344 191.472656 Z M 295.507812 195.519531 L 310.070312 195.519531 L 310.070312 200.773438 L 295.507812 200.773438 Z M 315.257812 179.371094 L 320 179.371094 L 320 191.472656 L 315.257812 191.472656 Z M 315.257812 179.371094 "/>
</g>
<g clip-path="url(#clip2)" clip-rule="nonzero">
<path style=" stroke:none;fill-rule:nonzero;fill:rgb(85.490196%,28.627451%,28.627451%);fill-opacity:1;" d="M 145.90625 268.496094 L 125.90625 268.496094 L 122.386719 249.414062 L 103.015625 249.414062 L 99.621094 268.496094 L 80 268.496094 L 101.128906 181.503906 L 124.777344 181.503906 Z M 112.699219 195.941406 L 105.660156 235.230469 L 119.871094 235.230469 Z M 175.089844 179.371094 C 180.539062 179.371094 185.335938 180.292969 189.476562 182.132812 C 193.636719 183.972656 197.433594 186.734375 200.871094 190.417969 L 192.195312 200.710938 C 187.164062 196.109375 182.171875 193.804688 177.226562 193.804688 C 174.375 193.804688 172.152344 194.640625 170.558594 196.316406 C 168.96875 197.988281 168.167969 200.207031 168.167969 202.972656 C 168.167969 205.648438 169.089844 207.839844 170.933594 209.546875 C 172.78125 211.273438 176.34375 213.265625 181.625 215.523438 C 186.488281 217.699219 190.429688 219.933594 193.449219 222.226562 C 196.46875 224.535156 198.75 227.363281 200.292969 230.710938 C 201.855469 234.058594 202.632812 238.203125 202.632812 243.136719 C 202.632812 248.410156 201.433594 253.140625 199.035156 257.324219 C 196.652344 261.507812 193.242188 264.773438 188.796875 267.113281 C 184.355469 269.457031 179.15625 270.628906 173.203125 270.628906 C 166.996094 270.628906 161.628906 269.539062 157.101562 267.363281 C 152.574219 265.191406 148.507812 262.179688 144.902344 258.328125 L 154.335938 247.90625 C 157.351562 250.585938 160.21875 252.613281 162.9375 253.984375 C 165.671875 255.371094 168.589844 256.066406 171.691406 256.066406 C 175.128906 256.066406 177.726562 255.039062 179.492188 252.980469 C 181.25 250.9375 182.128906 248.160156 182.128906 244.644531 C 182.128906 241.464844 181.25 238.84375 179.492188 236.789062 C 177.726562 234.746094 174.542969 232.804688 169.933594 230.960938 C 161.878906 227.617188 156.179688 223.90625 152.824219 219.84375 C 149.472656 215.789062 147.792969 210.671875 147.792969 204.476562 C 147.792969 199.539062 148.96875 195.164062 151.316406 191.34375 C 153.664062 187.546875 156.90625 184.601562 161.050781 182.511719 C 165.210938 180.417969 169.890625 179.371094 175.089844 179.371094 Z M 268.289062 268.496094 L 248.542969 268.496094 L 248.542969 230.960938 L 230.304688 230.960938 L 230.304688 268.496094 L 210.558594 268.496094 L 210.558594 181.503906 L 230.304688 181.503906 L 230.304688 215.523438 L 248.542969 215.523438 L 248.542969 181.503906 L 268.289062 181.503906 Z M 268.289062 268.496094 "/>
</g>
</g>
</svg>
